<?xml version="1.0" encoding="UTF-8"?>
<svg id="a" xmlns="http://www.w3.org/2000/svg" viewBox="0 0 48 48">
  <defs>
    <style>
      .b {
        fill: #a829b4;
      }

      .b, .c, .d {
        stroke-width: 0px;
      }

      .c {
        fill: #ff1d69;
      }

      .d {
        fill: #fead51;
      }
    </style>
  </defs>
  <path class="b" d="m11.26,16.12c-.05,0-.1-.03-.13-.08-.03-.05-.04-.12-.03-.18l2.28-11.19c.02-.09.08-.16.16-.16h28.31c.05,0,.1.03.13.08.03.05.04.12.03.18l-2.28,11.19c-.02.09-.08.16-.16.16H11.26Z"/>
  <path class="c" d="m8.71,29.81c-.05,0-.1-.03-.13-.08-.03-.05-.04-.12-.03-.18l2.28-11.19c.02-.09.08-.16.16-.16h18.87c.05,0,.1.03.13.08.03.05.04.12.03.18l-2.28,11.19c-.02.09-.08.16-.16.16H8.71Z"/>
  <path class="d" d="m6.16,43.5c-.05,0-.1-.03-.13-.08-.03-.05-.04-.12-.03-.18l2.28-11.19c.02-.09.08-.16.16-.16h9.44c.05,0,.1.03.13.08.03.05.04.12.03.18l-2.28,11.19c-.02.09-.08.16-.16.16H6.16Z"/>
</svg>