<?xml version="1.0" encoding="UTF-8"?>
<svg id="a" data-name="图层 1" xmlns="http://www.w3.org/2000/svg" viewBox="0 0 336 48">
  <defs>
    <style>
      .b {
        fill: #a829b4;
      }

      .b, .c, .d {
        stroke-width: 0px;
      }

      .c {
        fill: #ff1d69;
      }

      .d {
        fill: #fead51;
      }
    </style>
  </defs>
  <g>
    <path class="b" d="m8.15,15.75c-.05,0-.1-.03-.13-.08-.03-.05-.04-.12-.03-.18l2.28-11.19c.02-.09.08-.16.16-.16h28.31c.05,0,.1.03.13.08.03.05.04.12.03.18l-2.28,11.19c-.02.09-.08.16-.16.16H8.15Z"/>
    <path class="c" d="m5.61,29.44c-.05,0-.1-.03-.13-.08-.03-.05-.04-.12-.03-.18l2.28-11.19c.02-.09.08-.16.16-.16h18.87c.05,0,.1.03.13.08.03.05.04.12.03.18l-2.28,11.19c-.02.09-.08.16-.16.16H5.61Z"/>
    <path class="d" d="m3.06,43.13c-.05,0-.1-.03-.13-.08-.03-.05-.04-.12-.03-.18l2.28-11.19c.02-.09.08-.16.16-.16h9.44c.05,0,.1.03.13.08.03.05.04.12.03.18l-2.28,11.19c-.02.09-.08.16-.16.16H3.06Z"/>
  </g>
  <g>
    <path class="c" d="m35.78,32.56c.03,1.01.22,1.84.59,2.5.36.66.81,1.09,1.34,1.3.53.21,1.12.19,1.76-.06.64-.25,1.26-.77,1.85-1.55.64-.87,1.53-1.29,2.65-1.26.81.06,1.47.39,1.97.99.5.6.7,1.31.59,2.12-.06.39-.16.76-.32,1.11-.15.35-.31.69-.48,1.03-.9,1.32-1.95,2.39-3.15,3.23-1.2.84-2.6,1.4-4.2,1.68-1.34.22-2.56.13-3.65-.29s-2.13-1.09-3.11-2.02c-.7-.7-1.29-1.48-1.76-2.35-.48-.87-.86-1.77-1.15-2.71-.29-.94-.52-1.89-.67-2.86-.15-.97-.25-1.9-.27-2.79-.08-1.71.03-3.4.34-5.06.31-1.67.86-3.15,1.66-4.45.8-1.3,1.87-2.35,3.21-3.15,1.34-.8,3.01-1.18,5-1.15.95,0,1.87.15,2.75.46.88.31,1.67.73,2.37,1.28.7.55,1.29,1.21,1.76,1.99.48.78.8,1.67.97,2.65.28,1.6.2,3.09-.25,4.47-.45,1.39-1.13,2.55-2.04,3.49-.91.94-1.99,1.58-3.23,1.91-1.25.34-2.53.24-3.84-.29-.08-.03-.16-.06-.23-.08-.07-.03-.13-.06-.19-.08-.03,0-.11-.01-.25-.04Zm.42-5.63c.34.7.71,1.18,1.11,1.45.41.27.78.37,1.13.31.35-.06.67-.25.95-.59.28-.34.48-.75.61-1.24s.14-1.04.04-1.64c-.1-.6-.34-1.21-.73-1.83-.59-.76-1.13-1.08-1.62-.97-.49.11-.88.43-1.18.97-.29.53-.48,1.16-.55,1.87-.07.71,0,1.27.23,1.66Z"/>
    <path class="c" d="m56.57,41.76c-.62.25-1.25.43-1.89.52-.64.1-1.29.13-1.93.11-1.2-.03-2.28-.33-3.21-.9-.94-.57-1.66-1.31-2.16-2.21-.5-.9-.76-1.88-.76-2.96s.32-2.12.97-3.13c1.06-1.71,2.39-3.04,3.97-3.99,1.58-.95,3.4-1.54,5.44-1.76.06-.03.12-.04.19-.04s.17-.01.32-.04c.25-1.6.29-3.22.13-4.87-.03-.17-.06-.35-.08-.55-.03-.2-.07-.39-.13-.59-.14-.42-.29-.69-.46-.82s-.49-.12-.97.02c-1.29.39-2.41,1.05-3.36,1.97-.34.34-.65.69-.95,1.07-.29.38-.6.75-.9,1.11-.39.53-.88.86-1.45.99-.57.13-1.14.04-1.7-.27-.5-.25-.85-.61-1.05-1.07s-.22-.96-.08-1.49c.06-.22.11-.38.17-.46,1.04-1.96,2.31-3.6,3.82-4.94,1.51-1.33,3.4-2.21,5.67-2.62,1.43-.28,2.76-.12,4.01.48,1.25.6,2.23,1.53,2.96,2.79.56.95.93,1.94,1.11,2.96.18,1.02.3,2.06.36,3.13.08,1.74.02,3.45-.19,5.15s-.46,3.38-.73,5.06c-.28,1.88-.62,3.78-1.01,5.71-.06.25-.11.51-.17.78-.06.27-.15.53-.29.78-.31.64-.71,1.11-1.22,1.41-.5.29-1.03.44-1.58.44s-1.06-.13-1.53-.38c-.48-.25-.83-.62-1.05-1.09-.03-.06-.06-.11-.1-.15s-.09-.09-.15-.15Zm.21-5.96c.06-.56.12-1.11.19-1.66s.13-1.14.19-1.79c-.84.36-1.6.75-2.27,1.16-.67.41-1.25.93-1.72,1.57-.17.2-.29.4-.38.61s-.04.46.13.74c.53.11,1.06.13,1.57.04s1.28-.31,2.29-.67Z"/>
    <path class="c" d="m69.63,23.79c.08-.76.18-1.6.29-2.52.11-.92.23-1.86.36-2.81.13-.95.27-1.88.42-2.77.15-.9.3-1.71.44-2.44.22-.81.66-1.39,1.32-1.74.66-.35,1.37-.4,2.12-.15.59.17,1.04.46,1.34.86.31.41.49.9.55,1.49.2,1.68.26,3.35.19,5-.07,1.65-.1,3.29-.1,4.91,1.2-.03,2.3-.06,3.28-.11.98-.04,1.93-.1,2.86-.19.48-.03.92.04,1.34.19.42.15.78.37,1.07.65.29.28.5.62.63,1.01.13.39.15.81.06,1.26-.08.5-.29.91-.63,1.22-.34.31-.73.57-1.18.78-.45.21-.92.37-1.41.46-.49.1-.93.19-1.32.27-.81.11-1.36.18-1.64.21-.28.03-.5.06-.67.08-.17.03-.38.06-.63.11s-.76.12-1.51.23c-.08,1.65-.08,3.16,0,4.52s.27,2.31.57,2.86.73.57,1.3.06c.57-.5,1.31-1.79,2.21-3.86.31-.67.78-1.13,1.43-1.39.64-.25,1.27-.32,1.87-.21.6.11,1.11.4,1.51.86.41.46.54,1.09.4,1.87-.17,1.12-.5,2.22-.99,3.3-.49,1.08-1.09,2.04-1.81,2.88-.71.84-1.52,1.52-2.42,2.04-.9.52-1.85.78-2.86.78-1.51,0-2.84-.44-3.97-1.32s-2.07-2-2.81-3.34c-.74-1.34-1.27-2.81-1.6-4.39-.32-1.58-.43-3.09-.31-4.51-.5-.03-1.05-.09-1.64-.19-.59-.1-1.13-.26-1.62-.48-.49-.22-.89-.53-1.2-.9-.31-.38-.45-.87-.42-1.49.03-.59.23-1.07.61-1.45.38-.38.83-.68,1.36-.9.53-.22,1.09-.38,1.68-.48s1.09-.17,1.51-.23Z"/>
    <path class="c" d="m101.43,36.22c-.42.62-.81,1.2-1.15,1.76-.35.56-.72,1.09-1.11,1.6-.39.45-.82.89-1.28,1.32-.46.43-.93.81-1.41,1.11-1.2.76-2.44,1.01-3.72.78-1.27-.24-2.4-.92-3.38-2.04-.73-.92-1.3-1.95-1.72-3.07-.42-1.12-.74-2.31-.97-3.57-.22-1.37-.33-2.74-.32-4.12s.09-2.77.23-4.2c.06-.95.16-1.9.31-2.83.15-.94.3-1.88.44-2.83.06-.31.14-.6.25-.88.11-.28.24-.55.38-.8.34-.73.81-1.23,1.43-1.51.62-.28,1.27-.35,1.97-.21.59.14,1.11.48,1.58,1.01.46.53.72,1.19.78,1.97.08,1.4.13,2.79.13,4.16.03,3.64.15,6.35.38,8.13.22,1.78.5,2.86.84,3.25.34.39.72.2,1.15-.57.43-.77.86-1.9,1.28-3.38.42-1.48.83-3.2,1.24-5.15.41-1.95.76-3.91,1.07-5.9.06-.25.13-.51.21-.78.08-.27.18-.51.29-.73.36-.73.83-1.27,1.41-1.62.57-.35,1.22-.48,1.95-.4,1.54.17,2.56,1.06,3.07,2.69.11.22.18.48.21.76.03.28.06.53.08.76.2,2.18.39,4.37.59,6.55.2,2.18.39,4.4.59,6.64.08.73.17,1.47.27,2.23.1.76.17,1.51.23,2.27.17,2.13-.53,3.43-2.1,3.91-.76.25-1.48.2-2.18-.15-.7-.35-1.23-.97-1.6-1.87-.22-.53-.42-1.08-.59-1.64-.17-.56-.36-1.12-.59-1.68-.11-.28-.2-.6-.25-.97Z"/>
    <path class="c" d="m113.86,18.75c1.32-1.01,2.72-1.64,4.2-1.89,1.43-.25,2.69-.17,3.8.25,1.11.42,1.98,1.13,2.62,2.14.59.92.97,1.92,1.13,2.98.14,1.06,0,1.9-.42,2.52-.42.62-.95,1.01-1.58,1.2-.63.18-1.3.15-2-.08-.7-.24-1.27-.69-1.72-1.36-1.23-1.9-2.21-2.53-2.92-1.89-.71.64-1.11,2.42-1.2,5.33-.06,1.4-.09,2.59-.1,3.57-.01.98-.02,1.88-.02,2.71s-.01,1.66-.04,2.5c-.03.84-.06,1.82-.08,2.94,0,1.06-.34,1.95-1.01,2.65-.67.7-1.54,1.02-2.6.97-.78-.03-1.47-.29-2.06-.78-.59-.49-.94-1.14-1.05-1.95-.17-.95-.24-1.88-.21-2.77.03-1.06.06-2.39.08-3.99.03-1.6.06-3.25.1-4.98.04-1.72.08-3.38.13-4.98s.08-2.93.1-3.99c0-.42.07-.87.21-1.34.25-1.01.9-1.58,1.93-1.72,1.04-.17,1.82.24,2.35,1.22.06.11.11.23.17.36.06.13.11.26.17.4Z"/>
    <path class="c" d="m133.64,32.56c.03,1.01.22,1.84.59,2.5.36.66.81,1.09,1.34,1.3.53.21,1.12.19,1.76-.06.64-.25,1.26-.77,1.85-1.55.64-.87,1.53-1.29,2.65-1.26.81.06,1.47.39,1.97.99.5.6.7,1.31.59,2.12-.06.39-.16.76-.32,1.11-.15.35-.31.69-.48,1.03-.9,1.32-1.95,2.39-3.15,3.23-1.2.84-2.6,1.4-4.2,1.68-1.34.22-2.56.13-3.65-.29s-2.13-1.09-3.11-2.02c-.7-.7-1.29-1.48-1.76-2.35-.48-.87-.86-1.77-1.15-2.71-.29-.94-.52-1.89-.67-2.86-.15-.97-.25-1.9-.27-2.79-.08-1.71.03-3.4.34-5.06.31-1.67.86-3.15,1.66-4.45.8-1.3,1.87-2.35,3.21-3.15,1.34-.8,3.01-1.18,5-1.15.95,0,1.87.15,2.75.46.88.31,1.67.73,2.37,1.28.7.55,1.29,1.21,1.76,1.99.48.78.8,1.67.97,2.65.28,1.6.2,3.09-.25,4.47-.45,1.39-1.13,2.55-2.04,3.49-.91.94-1.99,1.58-3.23,1.91-1.25.34-2.53.24-3.84-.29-.08-.03-.16-.06-.23-.08-.07-.03-.13-.06-.19-.08-.03,0-.11-.01-.25-.04Zm.42-5.63c.34.7.71,1.18,1.11,1.45.41.27.78.37,1.13.31.35-.06.67-.25.95-.59.28-.34.48-.75.61-1.24s.14-1.04.04-1.64c-.1-.6-.34-1.21-.73-1.83-.59-.76-1.13-1.08-1.62-.97-.49.11-.88.43-1.18.97-.29.53-.48,1.16-.55,1.87-.07.71,0,1.27.23,1.66Z"/>
    <path class="b" d="m149.22,13.92c.81-.48,1.62-.88,2.42-1.22s1.64-.57,2.54-.71c1.96-.31,3.82-.25,5.59.17,1.76.42,3.36,1.37,4.79,2.86,1.23,1.26,2.06,2.65,2.5,4.18.43,1.53.55,3.13.36,4.81-.42,3.78-1.6,6.96-3.55,9.53-1.95,2.58-4.59,4.69-7.92,6.34-.22.14-.48.25-.78.32-.29.07-.57.13-.82.19-.34.06-.57.16-.71.32-.14.15-.24.4-.29.74-.14.53-.38.99-.71,1.36-.34.38-.73.66-1.18.84-.45.18-.93.26-1.45.23-.52-.03-1.02-.18-1.49-.46-.42-.22-.76-.53-1.01-.9s-.43-.8-.55-1.28c-.34-1.46-.63-2.9-.88-4.33-.31-1.71-.6-3.42-.86-5.12-.27-1.71-.51-3.44-.74-5.21-.22-1.68-.4-3.35-.52-5.02-.13-1.67-.13-3.34-.02-5.02.03-.53.11-1.11.25-1.72.14-.56.38-1.01.74-1.36.35-.35.75-.59,1.2-.71.45-.13.92-.13,1.41,0,.49.13.94.39,1.36.78.06.06.1.12.15.19.04.07.1.15.19.23Zm4.12,18.4c1.04-.45,1.94-1.06,2.71-1.85.77-.78,1.41-1.66,1.91-2.63.5-.96.87-1.99,1.11-3.07.24-1.08.33-2.15.27-3.21-.06-.98-.34-1.79-.86-2.42-.52-.63-1.21-1.03-2.08-1.2-.84-.14-1.67-.13-2.48.02-.81.15-1.58.47-2.31.95-.25.14-.44.27-.57.38-.13.11-.21.23-.25.36s-.06.28-.04.46c.01.18.05.41.1.69.42,1.93.82,3.86,1.2,5.77s.8,3.83,1.28,5.73Z"/>
    <path class="b" d="m167.7,28.7c.06-.28.1-.55.15-.82s.12-.53.23-.78c.22-.78.64-1.37,1.24-1.74.6-.38,1.24-.5,1.91-.36.73.08,1.31.38,1.74.9.43.52.65,1.18.65,2,.05,1.26.07,2.51.04,3.74s-.06,2.46-.08,3.7c0,.87-.01,1.72-.04,2.56-.03.84-.04,1.68-.04,2.52,0,1.49-.62,2.44-1.85,2.86-.56.17-1.13.15-1.72-.04-.59-.2-1.08-.56-1.47-1.09-.39-.84-.69-1.85-.88-3.02s-.31-2.38-.36-3.61-.01-2.45.08-3.65.23-2.25.4-3.15Zm3.44-6.89c-.73.08-1.37-.09-1.93-.52-.56-.43-.9-1-1.01-1.7-.06-.36-.04-.72.06-1.07.1-.35.25-.67.46-.97s.47-.55.78-.76.66-.34,1.05-.4c.7-.08,1.34.1,1.93.55.59.45.92,1.01,1.01,1.68.11.73-.07,1.41-.54,2.04-.48.63-1.08,1.02-1.81,1.16Z"/>
    <path class="b" d="m180.89,33.15c-.84-.45-1.65-.92-2.42-1.41-.77-.49-1.47-1.04-2.1-1.66s-1.17-1.32-1.62-2.1-.78-1.68-1.01-2.69c-.2-.84-.26-1.67-.19-2.5.07-.83.26-1.62.57-2.37.31-.76.71-1.45,1.22-2.08.5-.63,1.11-1.16,1.81-1.58,1.01-.53,2.08-.95,3.21-1.26,1.13-.31,2.25-.43,3.34-.38,1.09.06,2.13.31,3.11.78.98.46,1.81,1.2,2.48,2.2.59.92.83,1.89.71,2.9-.11,1.01-.56,1.79-1.34,2.35-.5.39-.98.6-1.43.63-.45.03-.89-.02-1.32-.15-.43-.13-.88-.27-1.32-.44-.45-.17-.92-.28-1.43-.34-.73-.06-1.28.08-1.66.4-.38.32-.58.74-.61,1.24-.03.5.13,1.04.46,1.6s.87,1.05,1.6,1.47c.7.42,1.33.83,1.89,1.24.56.41,1.08.85,1.55,1.32,1.29,1.34,2.12,2.65,2.5,3.91.38,1.26.42,2.43.13,3.51-.29,1.08-.87,2.03-1.72,2.86-.85.83-1.88,1.48-3.09,1.95-1.2.48-2.51.75-3.93.82-1.41.07-2.82-.13-4.22-.61-.14-.06-.28-.1-.42-.13-.14-.03-.28-.1-.42-.21-.48-.25-.85-.58-1.11-.99-.27-.41-.4-.89-.4-1.45,0-.64.15-1.18.44-1.62.29-.43.69-.76,1.2-.99.28-.08.69-.15,1.22-.21.53-.06,1.09-.1,1.68-.13.59-.03,1.16-.06,1.7-.11s.95-.1,1.2-.19c.67-.22,1.09-.52,1.26-.88s.18-.72.04-1.07c-.14-.35-.37-.68-.69-.99-.32-.31-.61-.53-.86-.67Z"/>
    <path class="b" d="m195.17,23.79c.08-.76.18-1.6.29-2.52.11-.92.23-1.86.36-2.81.13-.95.27-1.88.42-2.77.15-.9.3-1.71.44-2.44.22-.81.67-1.39,1.32-1.74.66-.35,1.37-.4,2.12-.15.59.17,1.04.46,1.34.86.31.41.49.9.55,1.49.2,1.68.26,3.35.19,5-.07,1.65-.11,3.29-.11,4.91,1.2-.03,2.3-.06,3.28-.11.98-.04,1.93-.1,2.86-.19.48-.03.92.04,1.34.19.42.15.78.37,1.07.65.29.28.5.62.63,1.01s.15.81.06,1.26c-.08.5-.29.91-.63,1.22-.34.31-.73.57-1.18.78-.45.21-.92.37-1.41.46-.49.1-.93.19-1.32.27-.81.11-1.36.18-1.64.21-.28.03-.5.06-.67.08-.17.03-.38.06-.63.11s-.76.12-1.51.23c-.08,1.65-.08,3.16,0,4.52s.27,2.31.57,2.86.73.57,1.3.06,1.31-1.79,2.21-3.86c.31-.67.78-1.13,1.43-1.39.64-.25,1.27-.32,1.87-.21.6.11,1.11.4,1.51.86.41.46.54,1.09.4,1.87-.17,1.12-.5,2.22-.99,3.3-.49,1.08-1.09,2.04-1.81,2.88-.71.84-1.52,1.52-2.42,2.04-.9.52-1.85.78-2.86.78-1.51,0-2.83-.44-3.97-1.32-1.13-.88-2.07-2-2.81-3.34-.74-1.34-1.27-2.81-1.6-4.39-.32-1.58-.43-3.09-.32-4.51-.5-.03-1.05-.09-1.64-.19s-1.13-.26-1.62-.48c-.49-.22-.89-.53-1.2-.9-.31-.38-.45-.87-.42-1.49.03-.59.23-1.07.61-1.45s.83-.68,1.37-.9c.53-.22,1.09-.38,1.68-.48s1.09-.17,1.51-.23Z"/>
    <path class="b" d="m217.09,18.75c1.32-1.01,2.72-1.64,4.2-1.89,1.43-.25,2.69-.17,3.8.25s1.98,1.13,2.62,2.14c.59.92.97,1.92,1.13,2.98.14,1.06,0,1.9-.42,2.52-.42.62-.94,1.01-1.57,1.2-.63.18-1.3.15-2-.08-.7-.24-1.27-.69-1.72-1.36-1.23-1.9-2.21-2.53-2.92-1.89-.71.64-1.11,2.42-1.2,5.33-.06,1.4-.09,2.59-.11,3.57-.01.98-.02,1.88-.02,2.71s-.01,1.66-.04,2.5c-.03.84-.06,1.82-.08,2.94,0,1.06-.34,1.95-1.01,2.65s-1.54,1.02-2.6.97c-.78-.03-1.47-.29-2.06-.78-.59-.49-.94-1.14-1.05-1.95-.17-.95-.24-1.88-.21-2.77.03-1.06.06-2.39.08-3.99.03-1.6.06-3.25.11-4.98.04-1.72.08-3.38.13-4.98s.08-2.93.1-3.99c0-.42.07-.87.21-1.34.25-1.01.9-1.58,1.93-1.72,1.04-.17,1.82.24,2.35,1.22.06.11.11.23.17.36.06.13.11.26.17.4Z"/>
    <path class="b" d="m229.23,28.7c.06-.28.11-.55.15-.82s.12-.53.23-.78c.22-.78.64-1.37,1.24-1.74.6-.38,1.24-.5,1.91-.36.73.08,1.31.38,1.74.9.43.52.65,1.18.65,2,.06,1.26.07,2.51.04,3.74-.03,1.23-.06,2.46-.08,3.7,0,.87-.01,1.72-.04,2.56s-.04,1.68-.04,2.52c0,1.49-.62,2.44-1.85,2.86-.56.17-1.13.15-1.72-.04s-1.08-.56-1.47-1.09c-.39-.84-.69-1.85-.88-3.02s-.31-2.38-.36-3.61-.01-2.45.08-3.65c.1-1.2.23-2.25.4-3.15Zm3.44-6.89c-.73.08-1.37-.09-1.93-.52-.56-.43-.9-1-1.01-1.7-.06-.36-.04-.72.06-1.07.1-.35.25-.67.46-.97s.47-.55.78-.76c.31-.21.66-.34,1.05-.4.7-.08,1.34.1,1.93.55.59.45.92,1.01,1.01,1.68.11.73-.07,1.41-.55,2.04-.48.63-1.08,1.02-1.81,1.16Z"/>
    <path class="b" d="m241.24,26.77c.03.28.04.55.02.82-.01.27,0,.57.06.9.22-.14.41-.26.57-.36.15-.1.29-.17.4-.23,1.09-.53,2.21-.84,3.36-.92s2.24.03,3.28.34c1.04.31,1.97.78,2.79,1.41.83.63,1.46,1.39,1.91,2.27.45.88.66,1.86.63,2.94-.03,1.08-.36,2.22-1.01,3.42-1.06,1.9-2.54,3.43-4.41,4.58-.84.53-1.72.92-2.62,1.15-.91.24-1.87.3-2.88.19-.87-.11-1.69-.29-2.48-.55s-1.58-.57-2.39-.97c-.81-.42-1.42-.93-1.83-1.53-.41-.6-.68-1.32-.82-2.16-.39-2.38-.7-4.75-.92-7.12-.22-2.37-.24-4.78-.04-7.24.08-1.34.27-2.66.55-3.95.28-1.29.77-2.55,1.47-3.78.64-1.18,1.46-2.14,2.44-2.9.98-.76,2.14-1.26,3.49-1.51.5-.08,1.01-.13,1.51-.15.5-.01,1.01.06,1.51.23,1.12.31,2.02.92,2.69,1.83.67.91,1.01,1.99,1.01,3.25.03.73-.05,1.42-.23,2.08-.18.66-.43,1.31-.73,1.95-.81,1.48-1.81,2.74-2.98,3.76-1.18,1.02-2.62,1.77-4.33,2.25Zm1.43-9.7c-.48.7-.8,1.45-.97,2.25s-.31,1.65-.42,2.54c.67-.25,1.29-.76,1.87-1.51.57-.76.99-1.54,1.24-2.35.14-.53.19-.96.15-1.28-.04-.32-.15-.53-.34-.63-.18-.1-.41-.07-.69.08-.28.15-.56.46-.84.9Zm1.47,15.83c-.9.48-1.53.98-1.89,1.51-.36.53-.49.97-.38,1.3.11.34.45.52,1.01.55.56.03,1.32-.24,2.27-.8.84-.53,1.4-1.05,1.68-1.55s.34-.9.19-1.2c-.15-.29-.48-.45-.99-.46-.5-.01-1.13.2-1.89.65Z"/>
    <path class="b" d="m269.13,36.22c-.42.62-.8,1.2-1.16,1.76-.35.56-.72,1.09-1.11,1.6-.39.45-.82.89-1.28,1.32-.46.43-.93.81-1.41,1.11-1.2.76-2.44,1.01-3.72.78-1.27-.24-2.4-.92-3.38-2.04-.73-.92-1.3-1.95-1.72-3.07-.42-1.12-.74-2.31-.97-3.57-.22-1.37-.33-2.74-.31-4.12.01-1.37.09-2.77.23-4.2.06-.95.16-1.9.32-2.83.15-.94.3-1.88.44-2.83.06-.31.14-.6.25-.88.11-.28.24-.55.38-.8.34-.73.81-1.23,1.43-1.51.62-.28,1.27-.35,1.97-.21.59.14,1.11.48,1.58,1.01.46.53.72,1.19.78,1.97.08,1.4.13,2.79.13,4.16.03,3.64.15,6.35.38,8.13.22,1.78.5,2.86.84,3.25.34.39.72.2,1.16-.57.43-.77.86-1.9,1.28-3.38.42-1.48.83-3.2,1.24-5.15.41-1.95.76-3.91,1.07-5.9.06-.25.13-.51.21-.78.08-.27.18-.51.29-.73.36-.73.83-1.27,1.41-1.62.57-.35,1.22-.48,1.95-.4,1.54.17,2.56,1.06,3.07,2.69.11.22.18.48.21.76.03.28.06.53.08.76.2,2.18.39,4.37.59,6.55s.39,4.4.59,6.64c.08.73.17,1.47.27,2.23.1.76.17,1.51.23,2.27.17,2.13-.53,3.43-2.1,3.91-.76.25-1.48.2-2.18-.15-.7-.35-1.23-.97-1.6-1.87-.22-.53-.42-1.08-.59-1.64-.17-.56-.36-1.12-.59-1.68-.11-.28-.2-.6-.25-.97Z"/>
    <path class="b" d="m281.43,23.79c.08-.76.18-1.6.29-2.52.11-.92.23-1.86.36-2.81.13-.95.27-1.88.42-2.77.15-.9.3-1.71.44-2.44.22-.81.67-1.39,1.32-1.74.66-.35,1.37-.4,2.12-.15.59.17,1.04.46,1.34.86.31.41.49.9.55,1.49.2,1.68.26,3.35.19,5-.07,1.65-.11,3.29-.11,4.91,1.2-.03,2.3-.06,3.28-.11.98-.04,1.93-.1,2.86-.19.48-.03.92.04,1.34.19.42.15.78.37,1.07.65.29.28.5.62.63,1.01s.15.81.06,1.26c-.08.5-.29.91-.63,1.22-.34.31-.73.57-1.18.78-.45.21-.92.37-1.41.46-.49.1-.93.19-1.32.27-.81.11-1.36.18-1.64.21-.28.03-.5.06-.67.08-.17.03-.38.06-.63.11s-.76.12-1.51.23c-.08,1.65-.08,3.16,0,4.52s.27,2.31.57,2.86.73.57,1.3.06,1.31-1.79,2.21-3.86c.31-.67.78-1.13,1.43-1.39.64-.25,1.27-.32,1.87-.21.6.11,1.11.4,1.51.86.41.46.54,1.09.4,1.87-.17,1.12-.5,2.22-.99,3.3-.49,1.08-1.09,2.04-1.81,2.88-.71.84-1.52,1.52-2.42,2.04-.9.52-1.85.78-2.86.78-1.51,0-2.83-.44-3.97-1.32-1.13-.88-2.07-2-2.81-3.34-.74-1.34-1.27-2.81-1.6-4.39-.32-1.58-.43-3.09-.32-4.51-.5-.03-1.05-.09-1.64-.19s-1.13-.26-1.62-.48c-.49-.22-.89-.53-1.2-.9-.31-.38-.45-.87-.42-1.49.03-.59.23-1.07.61-1.45s.83-.68,1.37-.9c.53-.22,1.09-.38,1.68-.48s1.09-.17,1.51-.23Z"/>
    <path class="b" d="m298.07,32.23c.03-1.34.16-2.66.4-3.95.24-1.29.59-2.56,1.07-3.82.14-.34.26-.67.36-1.01.1-.34.2-.66.32-.97.53-1.46,1.27-2.68,2.21-3.67.94-.99,2.16-1.7,3.67-2.12,1.46-.39,2.84-.36,4.16.08,1.32.45,2.42,1.29,3.32,2.52.62.81,1.09,1.67,1.43,2.58.34.91.59,1.85.76,2.83.48,2.8.4,5.47-.23,8.02s-1.79,4.97-3.46,7.27c-.56.78-1.22,1.47-1.97,2.06-.76.59-1.62,1.02-2.6,1.3-2.72.73-4.97-.03-6.76-2.27-.81-.92-1.39-1.94-1.74-3.04-.35-1.11-.6-2.26-.74-3.47-.06-.39-.08-.78-.08-1.18s-.03-.78-.08-1.18Zm11.26,2.6c.48-1.23.86-2.58,1.16-4.05s.46-2.86.48-4.16c.03-1.3-.08-2.42-.34-3.34-.25-.92-.67-1.43-1.26-1.51-.59.03-1.14.5-1.66,1.43-.52.92-.98,2.05-1.39,3.38-.41,1.33-.72,2.73-.94,4.2-.22,1.47-.31,2.77-.25,3.88.03,1.26.19,2.14.48,2.65s.65.72,1.07.65c.42-.07.87-.38,1.34-.94.48-.56.91-1.29,1.3-2.18Z"/>
    <path class="b" d="m321.29,18.75c1.32-1.01,2.72-1.64,4.2-1.89,1.43-.25,2.69-.17,3.8.25s1.98,1.13,2.62,2.14c.59.92.97,1.92,1.13,2.98.14,1.06,0,1.9-.42,2.52-.42.62-.94,1.01-1.57,1.2-.63.18-1.3.15-2-.08-.7-.24-1.27-.69-1.72-1.36-1.23-1.9-2.21-2.53-2.92-1.89-.71.64-1.11,2.42-1.2,5.33-.06,1.4-.09,2.59-.11,3.57-.01.98-.02,1.88-.02,2.71s-.01,1.66-.04,2.5c-.03.84-.06,1.82-.08,2.94,0,1.06-.34,1.95-1.01,2.65s-1.54,1.02-2.6.97c-.78-.03-1.47-.29-2.06-.78-.59-.49-.94-1.14-1.05-1.95-.17-.95-.24-1.88-.21-2.77.03-1.06.06-2.39.08-3.99.03-1.6.06-3.25.11-4.98.04-1.72.08-3.38.13-4.98s.08-2.93.1-3.99c0-.42.07-.87.21-1.34.25-1.01.9-1.58,1.93-1.72,1.04-.17,1.82.24,2.35,1.22.06.11.11.23.17.36.06.13.11.26.17.4Z"/>
  </g>
</svg>